<svg width="12" height="10" viewBox="0 0 12 10" fill="none" xmlns="http://www.w3.org/2000/svg">
<path d="M11.2787 5.98509C11.2296 5.99306 11.1799 5.99673 11.1302 5.99609L2.66446 5.99609L2.84906 6.08195C3.0295 6.16735 3.19365 6.28359 3.33417 6.42539L5.70818 8.7994C6.02084 9.09787 6.07338 9.57801 5.83267 9.93704C5.55253 10.3196 5.01529 10.4027 4.63268 10.1225C4.60177 10.0999 4.57239 10.0752 4.54478 10.0487L0.251816 5.75568C-0.0836792 5.42056 -0.0839744 4.87694 0.251145 4.54145C0.25136 4.54123 0.251602 4.54099 0.251816 4.54077L4.54478 0.247807C4.88055 -0.087018 5.42417 -0.0862675 5.75902 0.249496C5.78537 0.275925 5.80998 0.304044 5.83267 0.333666C6.07338 0.692692 6.02084 1.17283 5.70818 1.4713L3.33846 3.84961C3.21249 3.97571 3.06765 4.08145 2.90916 4.16299L2.65159 4.2789L11.083 4.2789C11.5216 4.26262 11.9064 4.569 11.9888 5.00012C12.0647 5.46819 11.7468 5.90916 11.2787 5.98509Z" fill="white"/>
</svg>
